<?xml version="1.0" encoding="utf-8"?>
<!-- Generator: Adobe Illustrator 18.0.0, SVG Export Plug-In . SVG Version: 6.00 Build 0)  -->
<!DOCTYPE svg PUBLIC "-//W3C//DTD SVG 1.1//EN" "http://www.w3.org/Graphics/SVG/1.1/DTD/svg11.dtd">
<svg zversion="1.1" xmlns="http://www.w3.org/2000/svg" xmlns:xlink="http://www.w3.org/1999/xlink" x="0px" y="0px"
	 viewBox="0 0 80.5 80.5" enable-background="new 0 0 80.5 80.5" xml:space="preserve">
<g id="Layer_1">
	<g>
		<g>
			<path fill="#ef4444" d="M67.4,21.8l5.6-1.9l1.1-5.8c0,0,0,0,0,0l1.5-7.7c0.6-3.2-1.4-4.9-4.4-3.9L26.1,18.1c0,0,0,0,0,0L20.5,20
				l4.4,3.9l6.1,5.3l4.4,3.9l18.8-6.6L67.4,21.8C67.4,21.8,67.4,21.8,67.4,21.8z"/>
			<path fill="#ef4444" d="M21.2,25.3l-4.5-3.8l-5.6,1.9c0,0,0,0,0,0l-7.4,2.6c-3.1,1.1-3.6,3.7-1.1,5.8l36,31.2c0,0,0,0,0,0
				l4.5,3.9l1.1-5.8l1.5-7.9l1.1-5.8L31.8,34.4L21.2,25.3C21.2,25.3,21.2,25.3,21.2,25.3z"/>
			<path fill="#475569" d="M47.2,63.8l-1.1,5.8l10.4,8.9c2.5,2.1,5,1.2,5.6-1.9L71,29.7c0,0,0,0,0,0l1.1-5.8l-5.6,1.9l-7.6,2.7
				l-5.6,1.9L49.8,50L47.2,63.8L47.2,63.8z"/>
			<polygon fill="#dc2626" points="73,19.8 20.5,20 35.5,33 			"/>
			<polygon fill="#dc2626" points="16.7,21.4 43.1,66.8 46.9,47.3 			"/>
			<polygon fill="#334155" points="72.1,23.9 46.2,69.6 53.4,30.5 			"/>
		</g>
	</g>
</g>
</svg>
