<svg xmlns="http://www.w3.org/2000/svg" xmlns:xlink="http://www.w3.org/1999/xlink" version="1.1" width="256" height="256" viewBox="0 0 256 256" xml:space="preserve">
<g style="stroke: none; stroke-width: 0; stroke-dasharray: none; stroke-linecap: butt; stroke-linejoin: miter; stroke-miterlimit: 10; fill: none; fill-rule: nonzero; opacity: 1;" transform="translate(1.4065934065934016 1.4065934065934016) scale(2.81 2.81)" >
	<path d="M 74.53 8.184 c 2.396 -0.946 4.889 -1.667 7.455 -2.158 c 1.283 -0.241 2.583 -0.423 3.895 -0.587 l 1.979 -0.172 c 0.662 -0.024 1.327 -0.079 1.995 -0.118 c 0.069 -0.004 0.131 -0.055 0.144 -0.126 c 0.015 -0.083 -0.041 -0.162 -0.124 -0.177 c -2.646 -0.468 -5.366 -0.666 -8.092 -0.517 c -2.725 0.144 -5.455 0.621 -8.094 1.423 c -2.643 0.79 -5.186 1.913 -7.591 3.25 c -2.41 1.336 -4.653 2.938 -6.752 4.683 l -0.027 0.023 c -0.221 0.183 -0.393 0.431 -0.484 0.726 c -0.247 0.806 0.205 1.66 1.011 1.907 c 2.312 0.71 4.606 1.501 6.844 2.453 c 2.235 0.957 4.094 1.86 6.228 3.058 c 2.074 4.808 3.751 9.359 4.519 14.473 l 0.006 0.037 c 0.033 0.218 0.148 0.425 0.337 0.57 c 0.389 0.298 0.945 0.224 1.243 -0.164 c 6.531 -8.522 10.368 -18.999 10.876 -29.58 c 0.003 -0.08 -0.057 -0.151 -0.137 -0.158 c -0.083 -0.008 -0.157 0.054 -0.165 0.137 c -0.506 5.241 -1.848 10.373 -3.892 15.181 c -2.051 4.807 -3.499 7.649 -6.786 11.667 c -0.611 -5.415 -2.041 -8.479 -3.969 -13.456 c -0.085 -0.219 -0.239 -0.413 -0.454 -0.545 l -0.042 -0.026 c -2.145 -1.321 -4.354 -2.558 -6.637 -3.662 c -2.279 -1.11 -2.035 -1.183 -4.457 -1.975 l 4.285 -2.701 C 69.837 10.3 72.137 9.138 74.53 8.184 z" style="stroke: none; stroke-width: 1; stroke-dasharray: none; stroke-linecap: butt; stroke-linejoin: miter; stroke-miterlimit: 10; fill: #475569; fill-rule: nonzero; opacity: 1;" transform=" matrix(1 0 0 1 0 0) " stroke-linecap="round" />
	<path d="M 65.97 25.941 l -0.011 0.011 c -5.022 5.103 -10.433 9.868 -16.471 13.582 l -2.278 1.361 c -0.758 0.457 -1.566 0.803 -2.347 1.211 c -1.552 0.853 -3.208 1.411 -4.827 2.086 c -0.196 0.065 -0.394 0.124 -0.591 0.187 l -0.355 0.101 c 0.289 -2.125 0.383 -4.281 0.214 -6.436 c -0.287 -3.725 -1.39 -7.46 -3.476 -10.654 c -0.268 -0.392 -0.481 -0.827 -0.797 -1.184 l -0.925 -1.091 c -0.591 -0.738 -1.29 -1.435 -2.077 -2.033 c -1.56 -1.2 -3.479 -2.04 -5.487 -2.233 c -2.002 -0.184 -4.039 0.149 -5.846 0.942 c -1.812 0.783 -3.468 1.902 -4.831 3.316 c -1.36 1.41 -2.519 3.051 -3.235 4.924 c -0.722 1.856 -1.077 3.932 -0.759 5.98 c 0.289 2.042 1.181 4.005 2.484 5.555 c 0.338 0.367 0.655 0.787 1.017 1.106 l 1.08 0.974 c 0.372 0.311 0.698 0.678 1.11 0.94 l 1.205 0.827 c 3.247 2.165 7.133 3.335 10.995 3.512 c 2.208 0.111 4.397 -0.075 6.544 -0.457 l -0.002 0.008 l 0.177 -0.038 c 0.184 -0.034 0.369 -0.065 0.553 -0.101 c -0.034 0.145 -0.063 0.291 -0.099 0.435 c -0.862 3.481 -2.297 6.811 -4.031 9.961 c -3.437 6.369 -8.64 11.594 -14.107 16.347 c -2.766 2.349 -5.663 4.564 -8.788 6.422 C 6.903 83.373 3.566 84.942 0 85.719 c 3.583 -0.693 6.973 -2.191 10.136 -3.998 c 3.183 -1.795 6.147 -3.954 8.984 -6.252 c 2.818 -2.328 5.546 -4.756 8.046 -7.445 c 0.64 -0.658 1.269 -1.326 1.833 -2.052 c 0.576 -0.714 1.181 -1.407 1.734 -2.141 l 1.59 -2.253 c 0.545 -0.742 0.967 -1.564 1.457 -2.343 c 1.847 -3.179 3.4 -6.561 4.375 -10.14 c 0.095 -0.352 0.182 -0.708 0.268 -1.063 c 0.108 -0.026 0.214 -0.056 0.322 -0.082 l 0.15 -0.032 l 0.001 -0.006 c 0.736 -0.186 1.466 -0.386 2.188 -0.609 c 1.762 -0.678 3.579 -1.258 5.25 -2.121 c 0.843 -0.415 1.722 -0.774 2.535 -1.237 l 2.446 -1.385 c 6.475 -3.785 12.193 -8.605 17.501 -13.752 c 0.009 -0.009 0.025 -0.024 0.033 -0.033 c 0.782 -0.795 0.772 -2.074 -0.023 -2.856 C 68.031 25.135 66.752 25.146 65.97 25.941 z M 37.669 44.886 l -0.422 0.12 c -2.426 0.61 -4.897 0.959 -7.358 0.892 c -3.404 -0.08 -6.756 -1.01 -9.619 -2.82 l -1.066 -0.692 c -0.367 -0.215 -0.656 -0.539 -0.989 -0.802 l -0.971 -0.831 c -0.33 -0.274 -0.563 -0.591 -0.853 -0.882 c -1.071 -1.215 -1.763 -2.684 -2.026 -4.241 c -1.041 -6.355 5.397 -13.25 11.99 -12.771 c 1.629 0.12 3.192 0.756 4.536 1.736 c 0.675 0.487 1.29 1.068 1.851 1.74 l 0.866 0.971 c 0.299 0.317 0.495 0.711 0.75 1.063 c 1.969 2.867 3.085 6.299 3.438 9.811 C 38.023 40.401 37.96 42.653 37.669 44.886 z" style="stroke: none; stroke-width: 1; stroke-dasharray: none; stroke-linecap: butt; stroke-linejoin: miter; stroke-miterlimit: 10; fill: #475569; fill-rule: nonzero; opacity: 1;" transform=" matrix(1 0 0 1 0 0) " stroke-linecap="round" />
</g>
</svg>
